<svg width="165" height="46" xmlns="http://www.w3.org/2000/svg"><g fill="none" fill-rule="evenodd"><path d="M14.615 18.757L28.757 4.615a6 6 0 018.486 0l14.142 14.142a6 6 0 010 8.486L37.243 41.385a6 6 0 01-8.486 0L14.615 27.243a6 6 0 010-8.486z" opacity=".299" fill="#3167EB"/><path d="M2.615 18.757L16.757 4.615a6 6 0 018.486 0l14.142 14.142a6 6 0 010 8.486L25.243 41.385a6 6 0 01-8.486 0L2.615 27.243a6 6 0 010-8.486z" fill="#3167EB"/><g fill="#FFF"><path d="M15.652 22.93l-.476.477c-.025.025-.027.095-.006.12l5.326 6.028 6.56-6.564-6.03-5.321c-.023-.02-.095-.018-.119.006l-.477.476.956.956a.676.676 0 01-.956.956l-.955-.956-2.867 2.867.956.955a.676.676 0 01-.956.956l-.956-.956z" opacity=".33"/><path d="M14.697 17.197a3.38 3.38 0 014.777-.001l.478-.476a1.458 1.458 0 011.969-.063l6.098 5.38c.559.494.586 1.32.059 1.847l-6.694 6.694a1.252 1.252 0 01-1.847-.06l-5.38-6.097a1.456 1.456 0 01.063-1.97l.477-.476a3.38 3.38 0 010-4.778zm3.822.955a2.028 2.028 0 00-2.868 2.866l2.868-2.866zm-2.867 4.778l-.476.477c-.025.025-.027.095-.006.12l5.326 6.028 6.56-6.564-6.03-5.321c-.023-.02-.095-.018-.119.006l-.477.476.956.956a.676.676 0 01-.956.956l-.955-.956-2.867 2.867.956.955a.676.676 0 01-.956.956l-.956-.956z"/></g><g fill-rule="nonzero"><path d="M62 17.616V5.91h4.858c1.339 0 2.345.281 3.018.843.674.562 1.01 1.282 1.01 2.158 0 .69-.207 1.247-.622 1.672-.414.425-.938.706-1.57.843v.115c.462.019.896.145 1.3.377.405.233.734.556.987.972.253.415.38.913.38 1.492 0 .621-.16 1.176-.478 1.663-.318.488-.787.872-1.407 1.152-.62.28-1.384.42-2.292.42H62zm2.565-2.023h2.091c.72 0 1.241-.134 1.567-.4.326-.267.49-.62.49-1.058a1.5 1.5 0 00-.537-1.189c-.357-.309-.844-.463-1.46-.463h-2.15v3.11zm0-4.785h1.902c.525 0 .962-.132 1.31-.397.347-.265.52-.628.52-1.09 0-.422-.155-.763-.465-1.022-.31-.26-.75-.39-1.318-.39h-1.949v2.9zm12.301 6.98c-.92 0-1.715-.19-2.384-.569a3.905 3.905 0 01-1.55-1.59c-.363-.68-.544-1.47-.544-2.369 0-.907.181-1.7.545-2.38.363-.68.88-1.21 1.549-1.59.67-.379 1.464-.568 2.384-.568.92 0 1.715.19 2.385.568.67.38 1.186.91 1.549 1.59s.545 1.473.545 2.38c0 .9-.182 1.69-.545 2.37a3.91 3.91 0 01-1.55 1.59c-.669.378-1.463.568-2.384.568zm.012-1.887c.624 0 1.097-.251 1.42-.754.321-.503.482-1.138.482-1.904s-.161-1.401-.483-1.906c-.322-.505-.795-.758-1.419-.758-.636 0-1.115.253-1.44.758-.323.505-.485 1.14-.485 1.906s.162 1.4.486 1.904c.324.503.803.754 1.44.754zm10.003 1.887c-.92 0-1.715-.19-2.385-.569a3.905 3.905 0 01-1.549-1.59c-.363-.68-.545-1.47-.545-2.369 0-.907.182-1.7.545-2.38.364-.68.88-1.21 1.55-1.59.669-.379 1.464-.568 2.384-.568.92 0 1.715.19 2.384.568.67.38 1.186.91 1.55 1.59.363.68.545 1.473.545 2.38 0 .9-.182 1.69-.545 2.37-.364.68-.88 1.21-1.55 1.59-.669.378-1.464.568-2.384.568zm.012-1.887c.624 0 1.097-.251 1.419-.754.321-.503.482-1.138.482-1.904s-.16-1.401-.482-1.906c-.322-.505-.795-.758-1.42-.758-.635 0-1.115.253-1.439.758-.324.505-.486 1.14-.486 1.906s.162 1.4.486 1.904c.324.503.804.754 1.44.754zm10.731-7.065v1.83h-1.712v4.252c0 .336.079.562.237.68.158.119.363.178.616.178.119 0 .237-.01.356-.032l.272-.048.397 1.812-.228.062a4.61 4.61 0 01-1.14.166c-.917.039-1.652-.153-2.207-.574-.555-.421-.83-1.062-.827-1.924v-4.573h-1.244v-1.83h1.244V6.733h2.524v2.104h1.712zm8.865 2.504l-2.31.137a1.265 1.265 0 00-.48-.726c-.257-.202-.604-.303-1.043-.303-.39 0-.721.079-.992.237-.27.158-.404.369-.4.632a.648.648 0 00.258.531c.176.145.475.262.897.35l1.647.32c1.75.346 2.627 1.139 2.63 2.377 0 .576-.174 1.08-.524 1.515-.35.435-.828.773-1.436 1.015-.608.242-1.306.363-2.091.363-1.205 0-2.165-.243-2.88-.729-.714-.486-1.131-1.148-1.25-1.986l2.483-.126c.079.358.261.629.548.812.286.182.654.274 1.104.274.443 0 .8-.084 1.07-.252.27-.167.408-.38.412-.64-.012-.434-.401-.726-1.168-.874l-1.575-.303c-1.762-.34-2.639-1.176-2.63-2.51-.005-.846.346-1.513 1.05-2 .706-.489 1.64-.732 2.806-.732 1.15 0 2.055.234 2.716.703a2.702 2.702 0 011.158 1.915zm6.419-2.504v1.83h-1.712v4.252c0 .336.079.562.237.68.158.119.363.178.616.178.118 0 .237-.01.355-.032l.273-.048.397 1.812-.228.062a4.61 4.61 0 01-1.14.166c-.917.039-1.653-.153-2.207-.574-.555-.421-.83-1.062-.827-1.924v-4.573h-1.244v-1.83h1.244V6.733h2.524v2.104h1.712zm1.418 8.78v-8.78h2.447v1.532h.095c.166-.545.444-.958.835-1.238a2.26 2.26 0 011.35-.42c.281 0 .546.029.795.086v2.16a2.725 2.725 0 00-.492-.094c-.21-.024-.4-.037-.575-.037-.556 0-1.018.169-1.383.506-.365.337-.548.777-.548 1.318v4.967h-2.524zm8.937.166c-.87 0-1.59-.219-2.163-.657-.572-.438-.859-1.092-.859-1.961 0-.655.16-1.17.48-1.543.32-.374.74-.647 1.26-.82a7.128 7.128 0 011.323-.302l.849-.09c.536-.06.937-.124 1.201-.189.34-.084.51-.267.51-.549v-.034c0-.362-.118-.642-.353-.84-.235-.199-.568-.298-.998-.298-.454 0-.816.096-1.084.286-.269.19-.447.433-.534.726l-2.334-.183c.174-.8.606-1.435 1.295-1.903.689-.469 1.579-.703 2.669-.703.675 0 1.307.102 1.895.308.589.206 1.064.527 1.425.964.361.436.542 1.003.542 1.7v5.922h-2.393V16.4h-.071a2.57 2.57 0 01-.993.997c-.44.258-.996.386-1.667.386zm.722-1.68c.553 0 1.008-.156 1.363-.466.356-.31.533-.697.533-1.158v-.932a1.508 1.508 0 01-.459.172c-.207.05-.428.092-.663.128l-.631.095c-.443.06-.8.18-1.07.36-.27.179-.405.44-.405.783 0 .335.125.589.376.76.25.172.57.258.956.258zm11.33-7.38c.668 0 1.28.166 1.837.5.557.333 1.004.834 1.341 1.503.338.669.507 1.506.507 2.513 0 .979-.164 1.805-.492 2.478-.328.672-.77 1.181-1.327 1.526a3.483 3.483 0 01-1.872.517c-.49 0-.905-.078-1.247-.234a2.518 2.518 0 01-.835-.592 3.123 3.123 0 01-.5-.723h-.078v4.7h-2.523V8.835h2.488v1.475h.112a3.36 3.36 0 01.486-.726 2.51 2.51 0 01.83-.615c.343-.166.768-.248 1.273-.248zm-.806 1.937c-.612 0-1.084.232-1.415.695-.332.463-.498 1.087-.498 1.872 0 .781.167 1.41.5 1.884.334.474.805.711 1.413.711.62 0 1.094-.24 1.422-.723.328-.482.492-1.106.492-1.872 0-.762-.163-1.38-.489-1.855-.326-.474-.8-.712-1.425-.712z" fill="#B1B9CC"/><path d="M62 36.736V24.909h8.146v2.062h-5.59v2.818h5.17v2.061h-5.17v2.824h5.613v2.062H62zm14.01.173c-.929 0-1.727-.193-2.394-.58a3.895 3.895 0 01-1.535-1.614c-.356-.69-.534-1.483-.534-2.38 0-.908.18-1.706.54-2.393a3.944 3.944 0 011.538-1.611c.665-.387 1.456-.58 2.373-.58.79 0 1.484.14 2.08.42a3.428 3.428 0 011.411 1.185c.345.508.534 1.105.57 1.79h-2.373c-.067-.443-.243-.8-.528-1.071-.286-.272-.658-.407-1.119-.407a1.69 1.69 0 00-1.405.687c-.354.458-.53 1.107-.53 1.946 0 .847.175 1.502.527 1.966a1.68 1.68 0 001.408.696c.433 0 .797-.128 1.092-.384.295-.256.48-.62.555-1.094h2.373c-.04.677-.227 1.274-.564 1.79-.336.516-.8.917-1.39 1.204-.59.287-1.289.43-2.095.43zm9.541 0c-.917 0-1.709-.191-2.376-.575a3.92 3.92 0 01-1.543-1.605c-.362-.687-.543-1.485-.543-2.394 0-.916.18-1.718.543-2.405a3.92 3.92 0 011.543-1.605c.667-.383 1.46-.575 2.376-.575.917 0 1.709.192 2.376.575a3.92 3.92 0 011.543 1.605c.362.687.543 1.49.543 2.405 0 .909-.18 1.707-.543 2.394a3.92 3.92 0 01-1.543 1.605c-.667.384-1.46.575-2.376.575zm.012-1.906c.622 0 1.093-.254 1.414-.762.32-.508.48-1.149.48-1.923s-.16-1.416-.48-1.926c-.321-.51-.792-.765-1.414-.765-.634 0-1.112.255-1.435.765-.322.51-.484 1.152-.484 1.926s.162 1.415.484 1.923c.323.508.801.762 1.435.762zm5.87 1.733v-8.87h2.396v1.565h.106c.19-.524.505-.935.948-1.233.443-.299.969-.448 1.579-.448.622 0 1.15.151 1.588.454.436.302.728.71.873 1.227h.095a2.38 2.38 0 011.006-1.222c.486-.306 1.062-.459 1.727-.459.846 0 1.533.263 2.063.789.529.525.793 1.269.793 2.231v5.966H102.1v-5.48c0-.493-.134-.863-.402-1.11-.267-.246-.602-.369-1.003-.369-.456 0-.813.143-1.068.428-.256.284-.384.656-.384 1.114v5.417h-2.438v-5.532c0-.435-.127-.782-.38-1.04-.254-.258-.588-.387-1.001-.387-.417 0-.767.15-1.05.448-.284.298-.426.694-.426 1.186v5.325h-2.514zm14.936 0v-8.87h2.397v1.565h.106c.189-.524.505-.935.947-1.233.443-.299.97-.448 1.58-.448.621 0 1.15.151 1.587.454.437.302.728.71.874 1.227h.094a2.38 2.38 0 011.006-1.222c.486-.306 1.062-.459 1.727-.459.846 0 1.534.263 2.063.789.53.525.794 1.269.794 2.231v5.966h-2.509v-5.48c0-.493-.134-.863-.401-1.11-.268-.246-.602-.369-1.004-.369-.456 0-.812.143-1.068.428-.256.284-.384.656-.384 1.114v5.417h-2.437v-5.532c0-.435-.127-.782-.381-1.04s-.587-.387-1-.387c-.418 0-.768.15-1.051.448-.284.298-.425.694-.425 1.186v5.325h-2.515zm19.068.173c-.928 0-1.73-.186-2.402-.557a3.802 3.802 0 01-1.552-1.582c-.362-.684-.543-1.493-.543-2.429 0-.912.18-1.713.543-2.402a3.957 3.957 0 011.531-1.611c.66-.385 1.434-.578 2.323-.578.799 0 1.52.166 2.163.497.644.331 1.154.83 1.532 1.498.378.668.567 1.505.567 2.51v.675h-6.174c0 .668.185 1.19.554 1.571.37.381.87.572 1.5.572.42 0 .785-.087 1.092-.26.307-.173.523-.43.649-.768l2.326.15c-.177.824-.626 1.482-1.346 1.975-.72.493-1.641.74-2.763.74zm-2.012-5.503h3.807c-.004-.528-.177-.963-.52-1.305-.342-.343-.787-.514-1.334-.514-.558 0-1.017.177-1.375.53-.358.355-.55.784-.578 1.289zm7.593 5.33v-8.87h2.438v1.547h.094c.166-.55.443-.967.833-1.25a2.23 2.23 0 011.345-.424c.28 0 .543.029.791.086v2.183a2.682 2.682 0 00-.49-.095 4.837 4.837 0 00-.572-.038c-.555 0-1.014.17-1.378.511-.364.341-.546.785-.546 1.332v5.018h-2.515zm10.244.173c-.929 0-1.727-.193-2.394-.58a3.895 3.895 0 01-1.534-1.614c-.356-.69-.535-1.483-.535-2.38 0-.908.18-1.706.54-2.393a3.944 3.944 0 011.538-1.611c.665-.387 1.456-.58 2.373-.58.791 0 1.485.14 2.08.42a3.428 3.428 0 011.411 1.185c.345.508.535 1.105.57 1.79h-2.373c-.067-.443-.243-.8-.528-1.071-.285-.272-.658-.407-1.119-.407-.582 0-1.05.229-1.404.687-.355.458-.532 1.107-.532 1.946 0 .847.176 1.502.529 1.966a1.68 1.68 0 001.407.696c.433 0 .797-.128 1.092-.384.295-.256.48-.62.555-1.094h2.373c-.04.677-.227 1.274-.564 1.79-.336.516-.8.917-1.39 1.204-.59.287-1.288.43-2.095.43zm9.476-9.159c.8 0 1.52.166 2.164.497.643.331 1.154.83 1.531 1.498.378.668.567 1.505.567 2.51v.675h-6.174c0 .668.185 1.19.555 1.571.37.381.87.572 1.499.572.421 0 .785-.087 1.092-.26.307-.173.523-.43.65-.768l2.325.15c-.177.824-.626 1.482-1.346 1.975-.72.493-1.64.74-2.762.74-.93 0-1.73-.187-2.403-.558a3.802 3.802 0 01-1.552-1.582c-.362-.684-.543-1.493-.543-2.429 0-.912.18-1.713.543-2.402a3.957 3.957 0 011.532-1.611c.659-.385 1.433-.578 2.322-.578zm.042 1.837c-.56 0-1.018.177-1.376.53-.358.355-.55.784-.578 1.289h3.807c-.004-.528-.177-.963-.52-1.305-.342-.343-.786-.514-1.333-.514z" fill="#3167EB"/></g></g></svg>